<svg width="1280" height="720" xmlns="http://www.w3.org/2000/svg" xmlns:xlink="http://www.w3.org/1999/xlink" overflow="hidden"><defs><clipPath id="clip0"><rect x="0" y="0" width="1280" height="720"/></clipPath></defs><g clip-path="url(#clip0)"><rect x="0" y="0" width="1280" height="720" fill="#FFFFFF"/><path d="M435.5 207.5 450.25 148.5 734.5 148.5 719.75 207.5Z" stroke="#2F528F" stroke-width="1.33333" stroke-miterlimit="8" fill="#4472C4" fill-rule="evenodd"/><text fill="#FFFFFF" font-family="Calibri,Calibri_MSFontService,sans-serif" font-weight="400" font-size="24" transform="translate(483.018 171)">Execute constructors</text><text fill="#FFFFFF" font-family="Calibri,Calibri_MSFontService,sans-serif" font-weight="400" font-size="24" transform="translate(512.511 200)">of base classes</text><path d="M424.5 313.5 439 255.5 741.5 255.5 727 313.5Z" stroke="#2F528F" stroke-width="1.33333" stroke-miterlimit="8" fill="#4472C4" fill-rule="evenodd"/><text fill="#FFFFFF" font-family="Calibri,Calibri_MSFontService,sans-serif" font-weight="400" font-size="24" transform="translate(468.737 277)">Execute constructors of</text><text fill="#FFFFFF" font-family="Calibri,Calibri_MSFontService,sans-serif" font-weight="400" font-size="24" transform="translate(476.75 306)">device class members</text><path d="M86.5001 207.834C86.5001 200.47 92.4697 194.5 99.8336 194.5L335.167 194.5C342.53 194.5 348.5 200.47 348.5 207.834L348.5 261.167C348.5 268.53 342.53 274.5 335.167 274.5L99.8336 274.5C92.4697 274.5 86.5001 268.53 86.5001 261.167Z" stroke="#2F528F" stroke-width="1.33333" stroke-miterlimit="8" fill="#4472C4" fill-rule="evenodd"/><text fill="#FFFFFF" font-family="Calibri,Calibri_MSFontService,sans-serif" font-weight="400" font-size="24" transform="translate(112.131 228)">Creating a C++ device</text><text fill="#FFFFFF" font-family="Calibri,Calibri_MSFontService,sans-serif" font-weight="400" font-size="24" transform="translate(160.724 257)">class object</text><path d="M773.5 52.5001 834 52.5001 834 52.5001 924.75 52.5001 1136.5 52.5001 1136.5 108.5 1136.5 108.5 1136.5 132.5 1136.5 148.5 924.75 148.5 694.947 169.458 834 148.5 773.5 148.5 773.5 132.5 773.5 108.5 773.5 108.5Z" stroke="#2F528F" stroke-width="1.33333" stroke-miterlimit="8" fill="#FFFF00" fill-rule="evenodd"/><text font-family="Calibri,Calibri_MSFontService,sans-serif" font-weight="700" font-size="21" transform="translate(789.794 81)">MappableObject</text><text font-family="Calibri,Calibri_MSFontService,sans-serif" font-weight="400" font-size="21" transform="translate(943.127 81)">is the first base class</text><text font-family="Calibri,Calibri_MSFontService,sans-serif" font-weight="400" font-size="21" transform="translate(790.154 107)">which creates a map from hierarchical</text><text font-family="Calibri,Calibri_MSFontService,sans-serif" font-weight="400" font-size="21" transform="translate(835.434 132)">object name to its interface</text><path d="M583.833 207.5 583.833 248.416 583.167 248.416 583.167 207.5ZM587.5 247.083 583.5 255.083 579.5 247.083Z"/><path d="M435.5 100.5 450.25 41.5001 734.5 41.5001 719.75 100.5Z" stroke="#2F528F" stroke-width="1.33333" stroke-miterlimit="8" fill="#D0CECE" fill-rule="evenodd"/><text fill="#FFFFFF" font-family="Calibri,Calibri_MSFontService,sans-serif" font-weight="400" font-size="24" transform="translate(501.211 78)">Allocate memory</text><path d="M584.833 100.5 584.833 141.416 584.167 141.416 584.167 100.5ZM588.5 140.083 584.5 148.083 580.5 140.083Z"/><path d="M374.5 419.5C370.634 419.5 367.5 418.978 367.5 418.333L367.5 231.667C367.5 231.022 364.366 230.5 360.5 230.5 364.366 230.5 367.5 229.978 367.5 229.333L367.5 42.6666C367.5 42.0223 370.634 41.5001 374.5 41.5001" stroke="#4472C4" stroke-width="0.666667" stroke-miterlimit="8" fill="none" fill-rule="evenodd"/><path d="M428.5 419.5 443 361.5 738.5 361.5 724 419.5Z" stroke="#2F528F" stroke-width="1.33333" stroke-miterlimit="8" fill="#4472C4" fill-rule="evenodd"/><text fill="#FFFFFF" font-family="Calibri,Calibri_MSFontService,sans-serif" font-weight="400" font-size="24" transform="translate(485.95 383)">Execute constructor</text><text fill="#FFFFFF" font-family="Calibri,Calibri_MSFontService,sans-serif" font-weight="400" font-size="24" transform="translate(485.71 412)">body of device class</text><path d="M86.5001 528C86.5001 520.544 92.5443 514.5 100 514.5L335 514.5C342.456 514.5 348.5 520.544 348.5 528L348.5 582C348.5 589.456 342.456 595.5 335 595.5L100 595.5C92.5443 595.5 86.5001 589.456 86.5001 582Z" stroke="#2F528F" stroke-width="1.33333" stroke-miterlimit="8" fill="#4472C4" fill-rule="evenodd"/><text fill="#FFFFFF" font-family="Calibri,Calibri_MSFontService,sans-serif" font-weight="400" font-size="24" transform="translate(104.737 548)">Creating C++ bank port</text><text fill="#FFFFFF" font-family="Calibri,Calibri_MSFontService,sans-serif" font-weight="400" font-size="24" transform="translate(181.724 577)">objects</text><path d="M0.333333-7.3547e-07 0.333424 40.916-0.333243 40.916-0.333333 7.3547e-07ZM4.00009 39.5827 0.000104987 47.5827-3.99991 39.5827Z" transform="matrix(-1 0 0 1 583.5 313.5)"/><path d="M433.5 526.5 448.25 467.5 733.5 467.5 718.75 526.5Z" stroke="#2F528F" stroke-width="1.33333" stroke-miterlimit="8" fill="#D0CECE" fill-rule="evenodd"/><text fill="#FFFFFF" font-family="Calibri,Calibri_MSFontService,sans-serif" font-weight="400" font-size="24" transform="translate(499.68 504)">Allocate memory</text><text font-family="Calibri,Calibri_MSFontService,sans-serif" font-weight="400" font-size="43" transform="translate(558.608 571)">…</text><path d="M433.5 663.5 448.25 604.5 733.5 604.5 718.75 663.5Z" stroke="#2F528F" stroke-width="1.33333" stroke-miterlimit="8" fill="#4472C4" fill-rule="evenodd"/><text fill="#FFFFFF" font-family="Calibri,Calibri_MSFontService,sans-serif" font-weight="400" font-size="24" transform="translate(485.947 627)">Execute constructor</text><text fill="#FFFFFF" font-family="Calibri,Calibri_MSFontService,sans-serif" font-weight="400" font-size="24" transform="translate(496.4 656)">body of port class</text><path d="M374.5 663.5C371.186 663.5 368.5 663.052 368.5 662.5L368.5 566.5C368.5 565.948 365.814 565.5 362.5 565.5 365.814 565.5 368.5 565.052 368.5 564.5L368.5 468.5C368.5 467.948 371.187 467.5 374.5 467.5" stroke="#4472C4" stroke-width="0.666667" stroke-miterlimit="8" fill="none" fill-rule="evenodd"/><path d="M791.5 534.5 858.833 534.5 858.833 534.5 959.833 534.5 1195.5 534.5 1195.5 611.5 1195.5 611.5 1195.5 644.5 1195.5 666.5 959.833 666.5 858.833 666.5 858.833 666.5 791.5 666.5 791.5 644.5 711.912 633.732 791.5 611.5Z" stroke="#2F528F" stroke-width="1.33333" stroke-miterlimit="8" fill="#FFFF00" fill-rule="evenodd"/><text font-family="Calibri,Calibri_MSFontService,sans-serif" font-weight="400" font-size="21" transform="translate(828.256 556)">Create</text><text font-family="Calibri,Calibri_MSFontService,sans-serif" font-weight="400" font-size="21" transform="translate(889.882 556)">default implementation for the</text><text font-family="Calibri,Calibri_MSFontService,sans-serif" font-weight="400" font-size="21" transform="translate(827.862 582)">hierarchical objects if no custom entry</text><text font-family="Calibri,Calibri_MSFontService,sans-serif" font-weight="400" font-size="21" transform="translate(802.196 607)">exists.</text><text font-family="Calibri,Calibri_MSFontService,sans-serif" font-weight="400" font-size="21" transform="translate(860.302 607)">Initialize all the hierarchical objects in</text><text font-family="Calibri,Calibri_MSFontService,sans-serif" font-weight="400" font-size="21" transform="translate(806.796 633)">the bank. No longer possible to replace the</text><text font-family="Calibri,Calibri_MSFontService,sans-serif" font-weight="400" font-size="21" transform="translate(905.716 658)">interface in the map</text><path d="M803.5 334.5 859 334.5 859 334.5 942.25 334.5 1136.5 334.5 1136.5 394.583 1136.5 394.583 1136.5 420.333 1136.5 437.5 942.25 437.5 859 437.5 859 437.5 803.5 437.5 803.5 420.333 803.5 406.387 803.5 394.583Z" stroke="#2F528F" stroke-width="1.33333" stroke-miterlimit="8" fill="#FFFF00" fill-rule="evenodd"/><text font-family="Calibri,Calibri_MSFontService,sans-serif" font-weight="400" font-size="21" transform="translate(836.197 367)">Create hierarchical objects and</text><text font-family="Calibri,Calibri_MSFontService,sans-serif" font-weight="400" font-size="21" transform="translate(813.83 393)">set/replace the interface in the map</text><text font-family="Calibri,Calibri_MSFontService,sans-serif" font-weight="400" font-size="21" transform="translate(813.984 418)">in any of these steps. Last one wins!</text><path d="M773.5 179.5C778.471 179.5 782.5 180.172 782.5 181L782.5 372.5C782.5 373.328 786.53 374 791.5 374 786.53 374 782.5 374.672 782.5 375.5L782.5 567C782.5 567.828 778.471 568.5 773.5 568.5" stroke="#4472C4" stroke-width="0.666667" stroke-miterlimit="8" fill="none" fill-rule="evenodd"/><path d="M583.833 419.5 583.833 460.416 583.167 460.416 583.167 419.5ZM587.5 459.083 583.5 467.083 579.5 459.083Z"/><path d="M583.833 526.5 583.833 551.095 583.167 551.095 583.167 526.5ZM587.5 549.762 583.5 557.762 579.5 549.762Z"/><path d="M583.833 587.5 583.833 597.84 583.167 597.84 583.167 587.5ZM587.5 596.506 583.5 604.506 579.5 596.506Z"/></g></svg>