<svg width="1280" height="720" xmlns="http://www.w3.org/2000/svg" xmlns:xlink="http://www.w3.org/1999/xlink" overflow="hidden"><defs><clipPath id="clip0"><rect x="0" y="0" width="1280" height="720"/></clipPath></defs><g clip-path="url(#clip0)"><rect x="0" y="0" width="1280" height="720" fill="#FFFFFF"/><rect x="490.5" y="144.5" width="209" height="91" stroke="#000000" stroke-width="1.33333" stroke-miterlimit="8" fill="#FFFFFF"/><text font-family="Calibri,Calibri_MSFontService,sans-serif" font-weight="400" font-size="24" transform="translate(504.854 197)">HierarchicalObject</text><path d="M490.5 211.5 699.532 211.5" stroke="#000000" stroke-width="0.666667" stroke-miterlimit="8" fill="none" fill-rule="evenodd"/><rect x="202.5" y="343.5" width="198" height="91" stroke="#000000" stroke-width="1.33333" stroke-miterlimit="8" fill="#FFFFFF"/><text font-family="Calibri,Calibri_MSFontService,sans-serif" font-weight="400" font-size="24" transform="translate(276.903 396)">Ban</text><text font-family="Calibri,Calibri_MSFontService,sans-serif" font-weight="400" font-size="24" transform="translate(314.07 396)">k</text><path d="M202.5 410.5 400.694 410.5" stroke="#000000" stroke-width="0.666667" stroke-miterlimit="8" fill="none" fill-rule="evenodd"/><rect x="495.5" y="343.5" width="199" height="91" stroke="#000000" stroke-width="1.33333" stroke-miterlimit="8" fill="#FFFFFF"/><text font-family="Calibri,Calibri_MSFontService,sans-serif" font-weight="400" font-size="24" transform="translate(555.304 396)">Register</text><path d="M495.5 410.5 693.694 410.5" stroke="#000000" stroke-width="0.666667" stroke-miterlimit="8" fill="none" fill-rule="evenodd"/><rect x="789.5" y="343.5" width="198" height="91" stroke="#000000" stroke-width="1.33333" stroke-miterlimit="8" fill="#FFFFFF"/><text font-family="Calibri,Calibri_MSFontService,sans-serif" font-weight="400" font-size="24" transform="translate(864.925 396)">Field</text><path d="M789.5 410.5 987.694 410.5" stroke="#000000" stroke-width="0.666667" stroke-miterlimit="8" fill="none" fill-rule="evenodd"/><path d="M301.167 343.113 301.167 288.973 595.177 288.973 594.844 289.306 594.844 242.167 595.511 242.167 595.511 289.64 301.5 289.64 301.833 289.306 301.833 343.113ZM591.177 243.5 595.177 235.5 599.177 243.5Z"/><path d="M0-0.333333 54.1397-0.333333 54.1397 0.000104987 53.8064-0.333228 100.946-0.333228 100.946 0.333438 53.4731 0.333438 53.4731 0 53.8064 0.333333 0 0.333333ZM99.6128-3.99989 107.613 0.000104987 99.6128 4.0001Z" transform="matrix(-1.83697e-16 -1 -1 1.83697e-16 595.5 343.113)"/><path d="M0-0.333333 54.14-0.333333 54.14 293.677 53.8066 293.344 100.946 293.344 100.946 294.011 53.4733 294.011 53.4733 0 53.8066 0.333333 0 0.333333ZM99.6129 289.677 107.613 293.677 99.6129 297.677Z" transform="matrix(-1.83697e-16 -1 -1 1.83697e-16 889.178 343.113)"/></g></svg>